<?xml version="1.0" encoding="UTF-8"?> <svg xmlns="http://www.w3.org/2000/svg" width="150" height="35" viewBox="0 0 150 35" fill="none"> <path d="M53.8779 23.9262C53.8988 24.0301 53.9301 24.1549 53.8049 24.1549H52.0828C51.801 24.1549 51.6758 23.895 51.6758 23.5416V22.3669C50.987 23.4376 50.006 24.2796 48.4196 24.2796H47.4699C45.1113 24.2796 43.5249 22.8971 43.5249 20.3711C43.5249 17.8451 44.9651 16.6705 47.4282 16.6705H51.6862V15.7245C51.6862 13.7807 51.1227 13.2505 49.2963 13.2505H48.6805C47.3447 13.2505 46.3949 13.5312 45.7061 13.8846C45.3722 14.0094 45.1113 14.0405 44.986 13.7599L44.5477 12.7931C44.4746 12.5852 44.4746 12.4397 44.7251 12.2838C45.7792 11.6185 47.2612 11.2859 48.6701 11.2859H49.2858C52.469 11.2859 53.8257 12.7204 53.8257 15.8077V23.552C53.8257 23.6767 53.8466 23.8326 53.8779 23.9366V23.9262ZM48.7014 22.2942C50.4234 22.2942 51.2375 21.473 51.6758 20.4023V18.4376H47.4595C46.3532 18.4376 45.6644 18.895 45.6644 20.3503C45.6644 21.8056 46.3532 22.2942 47.4595 22.2942H48.691H48.7014ZM64.711 15.527C64.4501 15.527 64.304 15.3711 64.2727 15.0904C64.0431 13.843 63.2708 13.2817 62.1645 13.2817H61.0895C59.5762 13.2817 58.6996 14.0717 58.6996 15.7557V19.9449C58.6996 21.473 59.5762 22.2942 61.0895 22.2942H62.1436C63.6047 22.2942 64.0431 21.7536 64.6797 20.9948C64.8571 20.7869 65.0658 20.7869 65.2954 20.9428L66.1408 21.5561C66.3704 21.7121 66.3704 21.8888 66.2139 22.0967C65.2954 23.2193 64.4918 24.29 62.1332 24.29H61.0791C58.2821 24.29 56.4662 22.3773 56.4662 19.5915V15.9428C56.4662 13.0842 58.2821 11.317 61.0791 11.317H62.1541C64.4605 11.317 66.099 12.7516 66.433 15.0696C66.4539 15.3711 66.3078 15.527 66.026 15.527H64.6901H64.711ZM76.8904 15.527C76.6295 15.527 76.4834 15.3711 76.4521 15.0904C76.2225 13.843 75.4502 13.2817 74.3439 13.2817H73.2689C71.7556 13.2817 70.879 14.0717 70.879 15.7557V19.9449C70.879 21.473 71.7556 22.2942 73.2689 22.2942H74.323C75.7841 22.2942 76.2225 21.7536 76.8591 20.9948C77.0365 20.7869 77.2452 20.7869 77.4748 20.9428L78.3202 21.5561C78.5498 21.7121 78.5498 21.8888 78.3932 22.0967C77.4748 23.2193 76.6712 24.29 74.3126 24.29H73.2585C70.4615 24.29 68.6456 22.3773 68.6456 19.5915V15.9428C68.6456 13.0842 70.4615 11.317 73.2585 11.317H74.3334C76.6399 11.317 78.2784 12.7516 78.6124 15.0696C78.6333 15.3711 78.4872 15.527 78.2054 15.527H76.8695H76.8904ZM86.5859 11.2859C89.3829 11.2859 91.1258 13.053 91.1258 15.9324V19.6642C91.1258 22.5021 89.3829 24.29 86.5859 24.29H85.3753C82.6096 24.29 80.8354 22.5021 80.8354 19.6642V15.9324C80.8354 13.0426 82.6096 11.2859 85.3753 11.2859H86.5859ZM88.9759 19.8721V15.7349C88.9759 14.0509 88.0783 13.2609 86.5859 13.2609H85.3753C83.8828 13.2609 83.0166 14.0509 83.0166 15.7349V19.8721C83.0166 21.4834 83.8933 22.2942 85.3753 22.2942H86.5859C88.0783 22.2942 88.9759 21.473 88.9759 19.8721ZM97.753 24.2692C94.8516 24.2692 93.8288 22.5541 93.8288 19.7474V11.764C93.8288 11.5042 93.9541 11.3794 94.215 11.3794H95.6239C95.8848 11.3794 96.0101 11.5042 96.0101 11.764V19.8617C96.0101 21.4938 96.5736 22.263 98.1913 22.263H98.5461C100.237 22.263 101.27 21.3482 101.594 20.7557V11.764C101.594 11.5042 101.719 11.3794 101.98 11.3794H103.389C103.65 11.3794 103.775 11.5042 103.775 11.764V23.7703C103.775 24.0301 103.65 24.1549 103.389 24.1549H101.98C101.719 24.1549 101.594 24.0301 101.594 23.7703V22.3669C100.873 23.4688 99.642 24.2588 97.9512 24.2588H97.7425L97.753 24.2692ZM112.886 11.2859C115.808 11.2859 116.81 12.9699 116.81 15.8077V23.7807C116.81 24.0405 116.685 24.1653 116.424 24.1653H115.015C114.754 24.1653 114.629 24.0405 114.629 23.7807V15.6829C114.629 14.0509 114.065 13.2609 112.479 13.2609H112.093C110.402 13.2609 109.369 14.2069 109.045 14.789V23.7807C109.045 24.0405 108.92 24.1653 108.659 24.1653H107.25C106.989 24.1653 106.864 24.0405 106.864 23.7807V11.764C106.864 11.5042 106.989 11.3794 107.25 11.3794H108.659C108.92 11.3794 109.045 11.5042 109.045 11.764V13.1674C109.765 12.0655 110.997 11.2755 112.688 11.2755H112.896L112.886 11.2859ZM125.097 13.3545H123.124V20.2568C123.124 21.6913 123.583 22.2006 125.024 22.2526C125.326 22.2526 125.462 22.4605 125.431 22.7412L125.41 23.7911C125.389 24.0717 125.201 24.2277 124.898 24.2277C121.851 24.2069 120.953 22.8971 120.953 20.2464V13.3441H119.649C119.388 13.3441 119.263 13.2193 119.263 12.9595V11.7848C119.263 11.5042 119.388 11.3794 119.649 11.3794H120.953V9.82016C120.953 9.56029 121.079 9.43555 121.339 9.43555H122.748C123.009 9.43555 123.135 9.56029 123.135 9.82016V11.3794H125.086C125.368 11.3794 125.493 11.5042 125.493 11.764V12.9699C125.493 13.2297 125.337 13.3545 125.107 13.3545H125.097ZM133.331 11.2859C135.669 11.2859 137.746 13.001 137.746 15.9116V17.8555C137.746 18.3441 137.443 18.6455 136.921 18.6455H129.897V19.9449C129.897 21.473 130.774 22.2942 132.287 22.2942H133.341C134.928 22.2942 135.345 21.8368 135.982 21.0676C136.159 20.8597 136.285 20.8389 136.545 21.0156L137.286 21.5249C137.547 21.7017 137.547 21.8576 137.391 22.0655C136.472 23.1881 135.596 24.29 133.341 24.29H132.287C129.49 24.29 127.674 22.3773 127.674 19.5915V15.9428C127.674 13.053 129.49 11.2963 132.287 11.2963H133.341L133.331 11.2859ZM135.533 16.8784V15.7245C135.533 14.0405 134.615 13.2505 133.331 13.2505H132.277C130.764 13.2505 129.887 14.0405 129.887 15.7557V16.8784H135.533ZM148.276 15.527C148.015 15.527 147.869 15.3711 147.838 15.0904C147.608 13.843 146.836 13.2817 145.73 13.2817H144.655C143.141 13.2817 142.265 14.0717 142.265 15.7557V19.9449C142.265 21.473 143.141 22.2942 144.655 22.2942H145.709C147.17 22.2942 147.608 21.7536 148.245 20.9948C148.422 20.7869 148.631 20.7869 148.86 20.9428L149.706 21.5561C149.935 21.7121 149.935 21.8888 149.779 22.0967C148.86 23.2193 148.057 24.29 145.698 24.29H144.644C141.847 24.29 140.031 22.3773 140.031 19.5915V15.9428C140.031 13.0842 141.847 11.317 144.644 11.317H145.719C148.026 11.317 149.664 12.7516 149.998 15.0696C150.019 15.3711 149.873 15.527 149.591 15.527H148.255H148.276Z" fill="#393B50"></path> <path d="M38.8646 30.7465L21.8805 1.14383C21.0067 -0.371393 18.8188 -0.384512 17.9318 1.12415L14.1671 7.51958L12.7414 9.94C12.0975 11.0354 12.4654 12.4523 13.5626 13.0951L13.9569 13.3247C15.0869 13.9872 16.5389 13.6067 17.2025 12.4785L18.8517 9.67763L19.6729 8.28703C19.7781 8.10337 20.0409 8.10993 20.146 8.28703L26.2563 18.9133C27.2616 20.6712 25.2839 22.6194 23.5362 21.5961L6.99242 11.8947C5.80321 11.1994 4.27235 11.593 3.56933 12.7802L3.38537 13.1016C2.73492 14.2036 3.10285 15.6008 4.20008 16.237C4.81768 16.5978 5.48784 16.9914 6.08573 17.339C7.02527 17.89 7.34721 19.0969 6.78874 20.0415L1.74938 28.6081L0.317074 31.0416C-0.326807 32.1371 0.0411252 33.5539 1.13835 34.1967L1.53257 34.4263C2.66264 35.0888 4.11466 34.7084 4.77825 33.5801L5.48784 32.3798C5.48784 32.3798 5.48784 32.3798 5.48784 32.3863L11.2302 22.6259C11.7821 21.6879 12.9976 21.3665 13.9371 21.9241L24.824 28.3064L25.0014 28.4113C25.1262 28.5228 25.2642 28.6278 25.4153 28.713L35.3035 34.4066C35.9211 34.7608 36.6635 34.8461 37.3271 34.6165C39.0748 34.0065 39.6464 32.1239 38.8514 30.7399L38.8646 30.7465Z" fill="#00BD9C"></path> </svg> 