<svg width="899" height="299" viewBox="0 0 899 299" fill="none" xmlns="http://www.w3.org/2000/svg">
<path d="M184.682 61.3789H1.1036C0.517826 61.3789 0.0429688 61.8538 0.0429688 62.4395V90.3206C0.0429688 90.9064 0.517826 91.3813 1.1036 91.3813H184.682C185.268 91.3813 185.743 90.9064 185.743 90.3206V62.4395C185.743 61.8538 185.268 61.3789 184.682 61.3789Z" fill="black"/>
<path d="M359.938 181.805H176.34C175.76 181.805 175.289 182.275 175.289 182.855V210.756C175.289 211.337 175.76 211.807 176.34 211.807H359.938C360.518 211.807 360.989 211.337 360.989 210.756V182.855C360.989 182.275 360.518 181.805 359.938 181.805Z" fill="black"/>
<path d="M359.638 121.549H1.09378C0.513435 121.549 0.0429688 122.019 0.0429688 122.6V150.5C0.0429688 151.081 0.513435 151.551 1.09378 151.551H359.638C360.218 151.551 360.689 151.081 360.689 150.5V122.6C360.689 122.019 360.218 121.549 359.638 121.549Z" fill="black"/>
<path d="M0.0527841 2.11341V29.3169C0.0527841 30.0928 0.681315 30.7115 1.44733 30.7115H329.93C330.205 30.7115 330.431 30.9373 330.431 31.2123V42.7615C330.431 43.5374 331.06 44.1659 331.836 44.1659H359.285C360.051 44.1659 360.679 43.5374 360.679 42.7714V2.09378C360.679 1.32776 360.051 0.699219 359.285 0.699219H1.44733C0.671494 0.699219 0.0429688 1.32777 0.0429688 2.10361L0.0527841 2.11341Z" fill="black"/>
<path d="M359.281 241.792H30.7781C30.4933 241.792 30.2576 241.557 30.2576 241.272V229.723C30.2576 228.957 29.6389 228.328 28.8631 228.328H1.40436C0.628526 228.328 0 228.957 0 229.732V270.39C0 271.166 0.628526 271.795 1.40436 271.795H359.291C360.057 271.795 360.675 271.176 360.675 270.41V243.197C360.675 242.421 360.047 241.792 359.271 241.792H359.281Z" fill="black"/>
<path d="M499.335 121.636C505.643 121.636 511.483 120.814 516.664 119.189C521.825 117.573 526.327 115.203 530.045 112.136C533.744 109.089 536.669 105.257 538.743 100.759C540.817 96.2603 541.869 91.0361 541.869 85.2508V84.9122C541.869 79.7944 541.066 75.3539 539.47 71.697C537.883 68.0594 535.503 64.8378 532.377 62.1193C529.223 59.3911 525.304 57.0112 520.707 55.057C516.081 53.0931 510.728 51.284 504.802 49.7071C499.746 48.343 495.492 47.1337 492.166 46.1082C488.792 45.0634 486.096 43.9508 484.137 42.7899C482.111 41.5903 480.686 40.2068 479.893 38.6686C479.109 37.1497 478.717 35.3406 478.717 33.2993V32.9607C478.717 29.7875 480.084 27.098 482.789 24.9696C485.437 22.8896 489.423 21.8254 494.613 21.8254C499.803 21.8254 504.945 22.909 510.078 25.0374C514.666 26.9529 519.407 29.5263 524.196 32.6995C524.731 33.0574 525.457 32.922 525.821 32.3899L537.252 15.6145C537.615 15.0727 537.501 14.3278 536.994 13.9408C531.374 9.64538 525.199 6.269 518.614 3.8891C511.464 1.30603 503.502 0 494.957 0C488.973 0 483.439 0.851363 478.488 2.52503C473.556 4.19871 469.255 6.62697 465.699 9.74213C462.153 12.8573 459.362 16.6013 457.403 20.8774C455.443 25.1438 454.449 30.0197 454.449 35.36V35.6985C454.449 41.4935 455.367 46.3984 457.173 50.2682C458.98 54.1379 461.56 57.4176 464.848 60.0103C468.165 62.6321 472.256 64.8668 477.026 66.6566C481.853 68.4657 487.301 70.1297 493.208 71.5906C498.168 72.8482 502.269 74.0575 505.385 75.1991C508.52 76.3504 511.015 77.521 512.802 78.6916C514.656 79.9009 515.937 81.2263 516.616 82.6581C517.275 84.0609 517.62 85.6862 517.62 87.4953V87.8339C517.62 91.5972 516.004 94.5866 512.831 96.715C509.744 98.7756 505.385 99.8205 499.86 99.8205C493.026 99.8205 486.651 98.4757 480.906 95.825C475.707 93.4257 470.555 90.2235 465.565 86.2957C465.059 85.899 464.332 85.9667 463.921 86.4601L450.913 102.229C450.492 102.732 450.559 103.497 451.046 103.922C457.689 109.708 465.087 114.1 473.069 116.983C481.623 120.079 490.465 121.646 499.344 121.646L499.335 121.636Z" fill="black"/>
<path d="M633.12 70.4675V50.3126C633.12 49.6258 632.575 49.0685 631.904 49.0685H589.149C588.906 49.0685 588.702 48.8694 588.702 48.6106V23.091C588.702 22.8422 588.896 22.6431 589.139 22.6431H648.481C649.152 22.6431 649.697 22.0858 649.697 21.399V1.24413C649.697 0.55737 649.152 0 648.481 0H565.208C564.537 0 563.992 0.55737 563.992 1.24413V120.402C563.992 121.089 564.537 121.646 565.208 121.646H646.477C647.148 121.646 647.693 121.089 647.693 120.402V100.247C647.693 99.5602 647.148 99.0028 646.477 99.0028H589.149C588.906 99.0028 588.702 98.8038 588.702 98.545V72.1595C588.702 71.9106 588.906 71.7016 589.149 71.7016H631.904C632.575 71.7016 633.12 71.1443 633.12 70.4575V70.4675Z" fill="black"/>
<path d="M867.724 121.646H895.32C895.673 121.646 895.88 121.248 895.693 120.949C895.693 120.949 868.353 78.6055 866.8 76.1967C866.731 76.0872 866.8 75.9976 866.869 75.9678L867.557 75.7089C875.156 72.8422 880.534 68.5223 885.233 62.3808C889.912 56.2691 892.292 48.2264 892.292 38.4716V38.1232C892.292 25.6212 888.31 17.5686 880.465 10.5909C872.59 3.59335 862.238 0 848.013 0H794.69C794.011 0 793.471 0.557406 793.471 1.23427V120.412C793.471 121.089 794.011 121.646 794.69 121.646H817.232C817.911 121.646 818.461 121.089 818.461 120.402V80.6958C818.461 80.447 818.658 80.238 818.913 80.238H841.19C841.348 80.238 841.485 80.3176 841.574 80.447L867.36 121.437C867.439 121.566 867.586 121.646 867.744 121.646H867.724ZM818.451 23.4314C818.451 23.1825 818.648 22.9834 818.894 22.9834H845.742C852.466 22.9834 857.824 24.5163 861.639 27.5323C865.512 30.5981 867.478 34.5797 867.478 40.6416V40.9899C867.478 46.4546 865.61 49.5303 861.934 52.8251C858.286 56.0999 853.007 57.7522 846.263 57.7522H818.894C818.648 57.7522 818.451 57.5531 818.451 57.3043V23.4114V23.4314Z" fill="black"/>
<path d="M731.819 120.855L779.618 0.612622C779.735 0.31619 779.52 0 779.207 0H752.514C752.328 0 752.172 0.118581 752.103 0.28656L720.577 86.2914C720.43 86.6768 719.892 86.6768 719.745 86.2914L688.277 0.306311C688.209 0.128452 688.043 0.00989072 687.847 0.00989072H661.223C660.9 0.00989072 660.685 0.335951 660.802 0.642264L708.512 120.875C708.698 121.34 709.148 121.646 709.647 121.646H730.675C731.174 121.646 731.624 121.34 731.81 120.865L731.819 120.855Z" fill="black"/>
<path d="M895.773 146.523H447.896V157.582H895.773V146.523Z" fill="black"/>
<path d="M447.896 182.463H464.484V270.933H447.896V182.463Z" fill="black"/>
<path d="M483.828 208.905H498.22V218.853H498.469C499.894 215.749 502.084 213.056 505.029 210.775C507.975 208.493 511.972 207.348 517.021 207.348C521.057 207.348 524.49 208.043 527.311 209.414C530.132 210.794 532.427 212.606 534.187 214.838C535.956 217.081 537.218 219.666 537.974 222.593C538.729 225.521 539.112 228.586 539.112 231.768V270.926H523.964V239.523C523.964 237.8 523.878 235.881 523.715 233.776C523.543 231.67 523.103 229.683 522.386 227.832C521.669 225.981 520.559 224.425 519.039 223.181C517.528 221.937 515.462 221.311 512.852 221.311C510.241 221.311 508.204 221.742 506.473 222.603C504.752 223.465 503.317 224.63 502.179 226.089C501.041 227.548 500.219 229.232 499.722 231.132C499.215 233.031 498.966 235.009 498.966 237.075V270.935H483.818V208.895L483.828 208.905Z" fill="black"/>
<path d="M590.684 226.439C587.738 222.14 583.777 219.986 578.812 219.986C576.794 219.986 574.814 220.514 572.881 221.562C570.939 222.619 569.973 224.325 569.973 226.699C569.973 228.634 570.767 230.04 572.374 230.908C573.972 231.786 575.99 232.534 578.439 233.142C580.879 233.761 583.509 234.389 586.331 235.048C589.153 235.706 591.784 236.713 594.224 238.08C596.663 239.447 598.682 241.302 600.289 243.676C601.886 246.05 602.69 249.292 602.69 253.421C602.69 257.202 601.915 260.384 600.356 262.967C598.796 265.561 596.778 267.645 594.291 269.221C591.803 270.797 589.01 271.944 585.891 272.643C582.773 273.341 579.664 273.7 576.545 273.7C571.829 273.7 567.495 272.992 563.535 271.595C559.574 270.189 556.044 267.645 552.926 263.955L563.028 254.08C564.96 256.364 567.046 258.229 569.275 259.675C571.504 261.122 574.22 261.85 577.416 261.85C578.506 261.85 579.645 261.72 580.821 261.451C581.998 261.192 583.098 260.753 584.102 260.134C585.116 259.516 585.939 258.748 586.561 257.83C587.192 256.912 587.508 255.835 587.508 254.608C587.508 252.414 586.705 250.788 585.107 249.741C583.509 248.683 581.481 247.825 579.042 247.167C576.602 246.509 573.972 245.9 571.15 245.322C568.328 244.753 565.697 243.825 563.257 242.559C560.818 241.292 558.799 239.506 557.192 237.222C555.595 234.938 554.791 231.786 554.791 227.746C554.791 224.235 555.49 221.183 556.877 218.599C558.264 216.006 560.091 213.881 562.368 212.215C564.645 210.55 567.247 209.323 570.193 208.535C573.139 207.747 576.124 207.348 579.157 207.348C583.194 207.348 587.192 208.076 591.153 209.522C595.104 210.968 598.308 213.452 600.748 216.963L590.646 226.439H590.684Z" fill="black"/>
<path d="M613.766 210.09H630.354V270.913H613.766V210.09Z" fill="black"/>
<path d="M745.775 218.235H746.036C747.271 215.684 749.46 213.364 752.593 211.286C755.725 209.198 759.772 208.164 764.722 208.164C768.96 208.164 772.564 208.85 775.527 210.203C778.489 211.566 780.899 213.354 782.746 215.558C784.604 217.772 785.929 220.323 786.722 223.213C787.516 226.103 787.917 229.129 787.917 232.27V270.923H772.012V239.925C772.012 238.224 771.922 236.33 771.751 234.251C771.57 232.173 771.108 230.211 770.355 228.384C769.602 226.558 768.438 225.021 766.841 223.793C765.254 222.566 763.086 221.947 760.344 221.947C757.603 221.947 755.464 222.372 753.647 223.223C751.839 224.074 750.333 225.224 749.138 226.664C747.944 228.104 747.08 229.767 746.558 231.642C746.026 233.517 745.765 235.469 745.765 237.509V270.933H729.859V182.463H745.765V218.245L745.775 218.235Z" fill="black"/>
<path d="M796.237 223.226V210.027H807.318V182.463H823.102V210.027H838.518V223.226H823.102V250.408C823.102 253.517 823.69 255.978 824.876 257.782C826.062 259.596 828.404 260.499 831.911 260.499C833.316 260.499 834.851 260.351 836.515 260.047C838.179 259.743 839.495 259.253 840.461 258.557V271.628C838.797 272.403 836.754 272.942 834.343 273.246C831.931 273.55 829.809 273.697 827.965 273.697C823.76 273.697 820.312 273.246 817.641 272.334C814.961 271.432 812.858 270.05 811.324 268.196C809.789 266.343 808.733 264.038 808.165 261.273C807.597 258.508 807.308 255.321 807.308 251.693V223.216H796.227L796.237 223.226Z" fill="black"/>
<path d="M886.514 226.439C883.568 222.14 879.607 219.986 874.642 219.986C872.624 219.986 870.644 220.514 868.711 221.562C866.769 222.619 865.803 224.325 865.803 226.699C865.803 228.634 866.597 230.04 868.204 230.908C869.802 231.786 871.82 232.534 874.269 233.142C876.709 233.761 879.339 234.389 882.161 235.048C884.983 235.706 887.614 236.713 890.054 238.08C892.493 239.447 894.512 241.302 896.119 243.676C897.716 246.05 898.52 249.292 898.52 253.421C898.52 257.202 897.745 260.384 896.186 262.967C894.626 265.561 892.608 267.645 890.121 269.221C887.633 270.797 884.84 271.944 881.721 272.643C878.603 273.341 875.494 273.7 872.375 273.7C867.659 273.7 863.325 272.992 859.365 271.595C855.404 270.189 851.874 267.645 848.756 263.955L858.858 254.08C860.79 256.364 862.876 258.229 865.105 259.675C867.334 261.122 870.05 261.85 873.246 261.85C874.336 261.85 875.475 261.72 876.651 261.451C877.828 261.192 878.928 260.753 879.933 260.134C880.947 259.516 881.769 258.748 882.391 257.83C883.022 256.912 883.338 255.835 883.338 254.608C883.338 252.414 882.535 250.788 880.937 249.741C879.339 248.683 877.311 247.825 874.872 247.167C872.432 246.509 869.802 245.9 866.98 245.322C864.158 244.753 861.527 243.825 859.087 242.559C856.648 241.292 854.63 239.506 853.022 237.222C851.425 234.938 850.621 231.786 850.621 227.746C850.621 224.235 851.32 221.183 852.707 218.599C854.094 216.006 855.921 213.881 858.198 212.215C860.475 210.55 863.077 209.323 866.023 208.535C868.969 207.747 871.954 207.348 874.987 207.348C879.024 207.348 883.022 208.076 886.983 209.522C890.934 210.968 894.138 213.452 896.578 216.963L886.476 226.439H886.514Z" fill="black"/>
<path d="M713.253 208.926H698.039V218.355H697.776C695.461 214.514 692.347 211.715 688.435 209.968C684.523 208.221 680.297 207.348 675.758 207.348C670.774 207.348 666.356 208.201 662.485 209.898C658.613 211.606 655.297 213.938 652.547 216.906C649.787 219.874 647.695 223.367 646.28 227.387C644.854 231.407 644.146 235.724 644.146 240.36C644.146 244.995 644.905 249.005 646.411 252.935C647.917 256.866 650.081 260.27 652.881 263.158C655.681 266.037 659.037 268.329 662.96 270.037C666.872 271.744 671.229 272.587 676.041 272.587C680.044 272.587 683.957 271.823 687.788 270.295C691.609 268.766 694.682 266.473 696.997 263.416H697.26V274.056C697.26 280.28 692.115 285.332 685.776 285.332H660.705V298.582H687.889C701.9 298.582 713.263 287.426 713.263 273.669V208.916L713.253 208.926ZM696.714 247.317C695.825 249.59 694.561 251.536 692.913 253.144C691.266 254.761 689.264 256.052 686.908 257.005C684.553 257.967 681.904 258.444 678.973 258.444C676.304 258.444 673.807 257.967 671.502 257.005C669.187 256.042 667.185 254.732 665.497 253.074C663.809 251.416 662.495 249.491 661.565 247.307C660.635 245.124 660.159 242.771 660.159 240.231C660.159 237.432 660.624 234.881 661.565 232.568C662.495 230.256 663.789 228.29 665.436 226.672C667.084 225.055 669.056 223.794 671.371 222.871C673.686 221.958 676.263 221.491 679.114 221.491C684.988 221.491 689.608 223.199 692.994 226.603C696.371 230.007 698.069 234.464 698.069 239.963C698.069 242.583 697.624 245.025 696.735 247.297L696.714 247.317Z" fill="black"/>
<path d="M613.766 189.383C613.766 186.784 614.668 184.53 616.472 182.601C618.276 180.672 620.555 179.707 623.319 179.707C626.082 179.707 628.408 180.631 630.289 182.459C632.169 184.296 633.118 186.601 633.118 189.383C633.118 192.166 632.178 194.47 630.289 196.308C628.399 198.146 626.082 199.06 623.319 199.06C620.555 199.06 618.267 198.095 616.472 196.176C614.668 194.247 613.766 191.993 613.766 189.394V189.383Z" fill="black"/>
</svg>
